<svg xmlns="http://www.w3.org/2000/svg" width="92" height="92" viewBox="0 0 92 92">
    <path fill="#C7C7CD" fill-rule="evenodd" d="M42.99 64.25c-.75 0-1.355.606-1.355 1.355a1.355 1.355 0 1 0 1.355-1.355zm3.395 1.355a3.395 3.395 0 1 0-6.79 0 3.395 3.395 0 0 0 6.79 0zm-9.411-4.903h3.63v.008h17.388a1.99 1.99 0 0 0 1.842-1.24l4.44-10.952a1.987 1.987 0 0 0-1.753-2.734l-3.296-.147.772 1.163c.176.27.291.562.35.86h.008c.84 0 1.526.687 1.526 1.526a1.53 1.53 0 0 1-1.526 1.524H58.44l-3.55 2.35h3.24a1.53 1.53 0 0 1 1.525 1.526 1.53 1.53 0 0 1-1.526 1.524h-7.843l-2.009 1.328a2.438 2.438 0 0 1-.98.395 2.403 2.403 0 0 1-2.383-1.045l-.449-.678h-5.248a1.53 1.53 0 0 1-1.526-1.524c0-.84.687-1.526 1.526-1.526h3.23l-1.557-2.35h-3.902a1.529 1.529 0 0 1-1.524-1.524c0-.839.686-1.525 1.524-1.525h1.882l-2.005-3.029-1.483-.069-1.315-4.657a2.118 2.118 0 0 0-.435-.81 2.13 2.13 0 0 0-1.581-1.053l-9.833-1.263a2.143 2.143 0 1 0-.546 4.253l8.567 1.1 4.834 17.13a1.975 1.975 0 0 0 1.902 1.439zm-.167-18.331l1.54 2.327 7.566 11.427a1.208 1.208 0 0 0 1.664.34l11.08-7.338c.55-.364.704-1.114.338-1.664l-.968-1.462a2.39 2.39 0 0 1-1.1-.167l-.83-.34-.823-.333a2.405 2.405 0 0 1-1.318-3.128l.55-1.349-1.898-2.867.504 1.552a2.386 2.386 0 0 1-.145 1.83 2.385 2.385 0 0 1-1.396 1.193l-1.698.552a2.393 2.393 0 0 1-3.023-1.541l-.299-.916a2.394 2.394 0 0 1-1.782.8H39.67c-.79 0-1.489-.386-1.926-.975l-.6.397a1.2 1.2 0 0 0-.337 1.662zm1.664-3.485a1.2 1.2 0 0 0 1.2 1.2h5.098c.66 0 1.2-.54 1.2-1.2V33.786a1.202 1.202 0 0 0-1.2-1.2H39.67c-.66 0-1.2.54-1.2 1.2v5.1zm6.66-7.778a.93.93 0 0 0 .93.928h1.778c.51 0 .93-.416.93-.928V29.33c0-.511-.42-.93-.93-.93h-1.778a.932.932 0 0 0-.93.93v1.78zm3.753 2.064c-.226 0-.456.066-.66.2l-1.055.7v2.953c.199-.144.423-.263.67-.343l1.697-.55a2.402 2.402 0 0 1 2.21.383l-1.858-2.806a1.203 1.203 0 0 0-1.004-.537zm3.086 6.567l-.552-1.696a1.2 1.2 0 0 0-1.51-.77l-1.699.551a1.2 1.2 0 0 0-.768 1.51l.55 1.699a1.207 1.207 0 0 0 1.512.77l1.698-.552c.627-.203.974-.883.769-1.512zm-1.685-9.424a2.277 2.277 0 0 0 2.271 2.27h4.35a2.278 2.278 0 0 0 2.273-2.27v-4.35a2.28 2.28 0 0 0-2.274-2.273h-4.349a2.279 2.279 0 0 0-2.27 2.274v4.349zm8.673 10.532l-1.654-.673a1.19 1.19 0 0 0-1.422.412 1.167 1.167 0 0 0-.142.247l-.157.39-.274.672-.242.59c-.249.612.048 1.316.66 1.565l1.38.561.272.111c.147.06.3.089.45.089.04 0 .083-.006.123-.008a1.213 1.213 0 0 0 .99-.74l.674-1.652a1.204 1.204 0 0 0-.658-1.564zm.76-7.675H58.428c-.87 0-1.583.713-1.583 1.586v3.032c0 .87.713 1.583 1.583 1.583h3.032c.873 0 1.586-.713 1.586-1.583v-3.032a1.59 1.59 0 0 0-1.586-1.586h-1.744zm.227-7.463c0 .51.418.927.93.927h1.779c.511 0 .93-.417.93-.927V23.93a.932.932 0 0 0-.93-.93h-1.78a.932.932 0 0 0-.929.93v1.779zM55.56 65.605a3.395 3.395 0 1 0-6.79.001 3.395 3.395 0 0 0 6.79-.001zM46 79.973a33.82 33.82 0 0 1-17.924-5.11C18.441 68.867 12.028 58.183 12.028 46c0-18.763 15.21-33.974 33.971-33.974 18.763 0 33.974 15.211 33.974 33.974 0 18.109-14.172 32.906-32.03 33.916-.642.035-1.29.056-1.944.056zm6.163-15.723c-.747 0-1.353.606-1.353 1.355a1.353 1.353 0 1 0 2.709 0c0-.75-.608-1.355-1.356-1.355zM28.738 86.608c.05.21.06.106 0 0zm57.936-41.393l-.303.006c.011.598.011 1.205-.004 1.805l.305.006c.011-.604.013-1.215.002-1.817zm-.086 3.632l-.303-.019c-.04.596-.092 1.202-.161 1.796l.3.033c.068-.598.123-1.208.164-1.81zm-1.028 5.34l.297.06c.12-.59.23-1.193.324-1.789l-.299-.048a39.63 39.63 0 0 1-.322 1.777zm.732-10.768l.303-.02a39.17 39.17 0 0 0-.159-1.81l-.299.032c.065.598.117 1.204.155 1.798zm-1.267-8.95l-.29.083c.168.575.325 1.162.467 1.743l.293-.073c-.142-.585-.3-1.175-.47-1.754zm-1.17-3.441l-.282.11c.218.557.425 1.128.619 1.693l.285-.096a44.257 44.257 0 0 0-.623-1.707zm.553 28.484l-.285-.1c-.198.566-.41 1.137-.633 1.693l.282.113c.224-.562.437-1.135.636-1.706zm1.495-19.68l.297-.045a39.205 39.205 0 0 0-.312-1.79l-.297.06c.117.584.22 1.182.312 1.776zM73.585 76.1c.442-.412.88-.84 1.301-1.269l-.217-.21c-.417.425-.852.848-1.29 1.257l.206.222zm-2.76 2.354c.473-.368.946-.756 1.406-1.147l-.197-.231c-.454.39-.926.774-1.395 1.14l.186.238zm11.45-13.921c.272-.539.537-1.091.786-1.64l-.276-.124a40.797 40.797 0 0 1-.78 1.628l.27.136zM67.867 80.555a42.07 42.07 0 0 0 1.5-1.018l-.174-.247c-.486.347-.989.688-1.489 1.01l.163.255zm12.625-12.853c.319-.512.631-1.039.926-1.566l-.262-.148a43.547 43.547 0 0 1-.92 1.555l.256.159zm-2.052 3c.36-.484.718-.98 1.058-1.478l-.25-.17c-.337.494-.691.986-1.05 1.465l.242.182zm-2.308 2.806c.4-.449.8-.913 1.184-1.379l-.233-.191a42.06 42.06 0 0 1-1.177 1.366l.226.204zm4.489-48.976l-.257.157c.312.508.617 1.031.907 1.555l.264-.146a38.38 38.38 0 0 0-.914-1.566zM52.946 5.589c-.597-.11-1.2-.205-1.796-.285l-.04.299c.592.08 1.191.176 1.782.283l.054-.297zm3.55.809a38.321 38.321 0 0 0-1.766-.445l-.067.295c.586.135 1.177.282 1.752.441l.08-.291zM59.96 7.52a41.559 41.559 0 0 0-1.72-.6l-.094.288c.57.184 1.143.385 1.706.596l.108-.284zM49.344 5.098a41.126 41.126 0 0 0-1.813-.122l-.014.3c.598.028 1.204.07 1.8.123l.027-.3zm-7.234.288l-.026-.301c-.598.052-1.206.117-1.808.196l-.086.011.038.299.088-.01a41.02 41.02 0 0 1 1.794-.195zm3.604-.454a41.102 41.102 0 0 0-1.817.036l.013.303a40.442 40.442 0 0 1 1.804-.038v-.301zm33.924 18.076c-.338-.498-.69-.997-1.05-1.48l-.242.18c.354.482.705.974 1.042 1.469l.25-.169zM64.739 82.384c.53-.28 1.064-.575 1.583-.88l-.151-.26c-.516.3-1.047.595-1.574.873l.142.267zm11.556-63.67l-.226.202c.398.447.791.907 1.169 1.37l.236-.19a42.668 42.668 0 0 0-1.18-1.381zm6.085 8.992l-.27.134c.267.537.525 1.087.769 1.631l.276-.12a37.754 37.754 0 0 0-.775-1.645zm2.298 29.987l.292.086c.172-.58.335-1.17.483-1.756l-.293-.074c-.146.582-.309 1.169-.482 1.744zM6.761 32.573a39.602 39.602 0 0 0-.558 1.732l.29.086c.17-.575.358-1.153.553-1.719l-.285-.1zm1.621-3.259l-.276-.123c-.25.55-.487 1.116-.711 1.676l.282.113a40.88 40.88 0 0 1 .705-1.666zM5.614 37.9c.121-.588.253-1.18.4-1.763l-.292-.073a39.709 39.709 0 0 0-.403 1.777l.295.059zm4.129-11.954c-.295.525-.58 1.065-.855 1.606l.27.134c.27-.535.556-1.072.85-1.593l-.265-.147zm1.919-3.09c-.342.498-.675 1.01-.993 1.524l.257.159c.316-.508.646-1.018.985-1.513l-.25-.17zM47.374 87.07a42.026 42.026 0 0 0 1.77-.117l-.026-.3c-.59.051-1.19.09-1.783.116l.039.301zm-8.98-81.5a42.67 42.67 0 0 0-1.61.32l.04.3a36.175 36.175 0 0 1 1.622-.321l-.052-.3zm-16.829 7.49l-.044-.34c-.404.292-.805.592-1.196.896l.186.238c.345-.27.7-.533 1.054-.794zm-5.298 4.185c-.421.429-.84.874-1.244 1.324l.227.201c.398-.446.814-.887 1.232-1.315l-.215-.21zm2.849-2.25l-.196-.23c-.458.39-.914.799-1.355 1.209l.207.222c.439-.41.89-.814 1.344-1.202zm-5.275 4.952c-.383.468-.761.949-1.121 1.43l.241.182a39.4 39.4 0 0 1 1.114-1.42l-.234-.192zm2.315 54.741l.219-.21c-.418-.43-.832-.873-1.23-1.32l-.227.202c.403.45.819.897 1.238 1.328zm11.761 8.428l.13-.274c-.54-.259-1.082-.531-1.611-.813l-.142.267c.533.283 1.079.56 1.623.82zm1.658.746c.426.182.86.354 1.294.52l-.044-.34c-.38-.148-.76-.3-1.131-.458l-.119.278zm-4.868-2.458l.155-.26a40.813 40.813 0 0 1-1.533-.953l-.165.253c.504.332 1.025.654 1.543.96zm-4.497-3.076c.474.374.964.74 1.453 1.09l.176-.245a41.639 41.639 0 0 1-1.443-1.083l-.186.238zm34.319 7.797a42.3 42.3 0 0 0 1.765-.431l-.079-.293c-.577.155-1.165.299-1.751.429l.065.295zm-3.579.63a43.16 43.16 0 0 0 1.796-.275l-.052-.3c-.59.106-1.19.198-1.782.275l.038.3zm7.088-1.573a39.549 39.549 0 0 0 1.721-.586l-.105-.284c-.562.207-1.137.403-1.706.583l.09.287zm-49.99-22.45l.277-.12a43.63 43.63 0 0 1-.698-1.667l-.28.112c.22.561.456 1.125.702 1.675zm1.622 3.252l.265-.147a42.157 42.157 0 0 1-.842-1.595l-.27.134c.268.54.554 1.081.847 1.608zm9.135 11.19l.198-.228a44.79 44.79 0 0 1-1.342-1.205l-.207.218c.439.412.895.82 1.351 1.215zM6.172 57.618c.169.579.355 1.162.548 1.73l.286-.095a40.77 40.77 0 0 1-.544-1.721l-.29.086zm5.4 11.454l.249-.17a43.255 43.255 0 0 1-.978-1.513l-.257.16c.315.511.646 1.025.986 1.523zm2.167 2.908l.234-.19c-.376-.464-.75-.94-1.108-1.422l-.241.182c.36.483.736.964 1.115 1.43zm47.71 11.954a42.904 42.904 0 0 0 1.663-.738l-.129-.274c-.542.255-1.096.503-1.648.733l.115.28zm22.672-39.821c-.004-.1-.012-.196-.018-.295h-.322c.566 9.783-2.631 19.778-9.715 27.6-11.604 12.815-30.049 15.828-44.836 8.53l-.22.245c5.784 2.887 12.242 4.257 18.877 3.927 10.184-.504 19.558-4.943 26.403-12.498 6.843-7.558 10.335-17.326 9.83-27.509zm-4.922-16.315h.368a38.317 38.317 0 0 0-1.22-2.082l-.222.244c.378.604.732 1.219 1.074 1.838zM19.652 73.191c-8.178-7.918-12.04-18.728-11.437-29.373h-.324a39.455 39.455 0 0 0-.013 4.069c.483 9.758 4.58 18.772 11.57 25.529l.204-.225zm-6.858-45.393a37.869 37.869 0 0 1 5.14-7.215c13.728-15.159 37.03-16.608 52.523-3.488l.2-.224c-7.413-6.287-16.79-9.474-26.546-8.991-10.181.504-19.558 4.943-26.402 12.5a38.5 38.5 0 0 0-5.271 7.418h.356zM91.62 40.023l-.31.285c1.753 14.105-3.064 28.831-14.265 39.206-18.479 17.12-47.44 16.013-64.56-2.468A45.478 45.478 0 0 1 4.633 65.39l-.257.238a46.126 46.126 0 0 0 7.876 11.632c8.351 9.015 19.711 14.238 31.99 14.707 12.278.47 24.003-3.871 33.017-12.22 9.014-8.35 14.237-19.71 14.707-31.988.1-2.611-.02-5.197-.347-7.736zm-6.183-17.09l.245-.228a46.353 46.353 0 0 0-5.936-7.966 46.15 46.15 0 0 0-10.996-8.742l-.257.238a45.785 45.785 0 0 1 16.944 16.698zM.342 46.55l-.334.309c-.015-.869-.01-1.74.025-2.615.47-12.278 5.693-23.638 14.705-31.99C23.752 3.904 35.478-.435 47.757.034c.874.033 1.744.094 2.609.175l-.334.308C37.616-.579 24.797 3.367 14.954 12.485 5.11 21.605.196 34.085.342 46.55z"/>
</svg>
