<svg xmlns="http://www.w3.org/2000/svg" width="180" height="180" viewBox="0 0 180 180">
    <g fill="#C7C7CD" fill-rule="evenodd">
        <path d="M29.255 24.43C48.515 6.59 73.595-1.13 97.887 1.01l.653-.6a92.271 92.271 0 0 0-5.104-.344C69.414-.85 46.471 7.64 28.835 23.976 11.202 40.31.98 62.54.06 86.559a93.288 93.288 0 0 0-.045 5.12l.649-.608c-.281-24.383 9.33-48.8 28.59-66.642M155.567 29.26A89.414 89.414 0 0 1 167.15 44.87l.48-.446a90.716 90.716 0 0 0-11.61-15.585c-6.36-6.863-13.613-12.6-21.514-17.104l-.503.465a89.024 89.024 0 0 1 21.563 17.059M179.25 78.305l-.608.558c3.431 27.597-5.992 56.408-27.907 76.707-36.154 33.495-92.817 31.327-126.308-4.83a88.992 88.992 0 0 1-15.364-22.804l-.502.465a90.16 90.16 0 0 0 15.412 22.758c16.335 17.637 38.562 27.856 62.584 28.774 24.023.919 46.965-7.571 64.598-23.91 17.636-16.335 27.855-38.561 28.773-62.584a91.062 91.062 0 0 0-.678-15.134"/>
        <path d="M25.03 54.389A74.017 74.017 0 0 1 35.089 40.27c26.858-29.659 72.447-32.49 102.758-6.821l.394-.443C123.735 20.71 105.393 14.47 86.302 15.42c-19.92.986-38.265 9.671-51.656 24.454a75.348 75.348 0 0 0-10.313 14.516h.698zM38.447 143.2c-16.001-15.49-23.558-36.644-22.376-57.472h-.63a76.224 76.224 0 0 0-.027 7.965c.945 19.088 8.963 36.724 22.635 49.946l.398-.439zM154.95 54.389h.72a72.695 72.695 0 0 0-2.385-4.076l-.435.48a70.7 70.7 0 0 1 2.1 3.596M164.58 86.308c-.008-.195-.023-.387-.035-.578h-.63c1.107 19.14-5.148 38.7-19.008 54-22.703 25.073-58.789 30.968-87.717 16.688l-.434.48c11.317 5.647 23.954 8.328 36.933 7.684 19.924-.987 38.269-9.672 51.66-24.454 13.388-14.783 20.216-33.9 19.23-53.82M120.227 164.215a83.942 83.942 0 0 0 3.251-1.443l-.254-.536a75.196 75.196 0 0 1-3.225 1.432l.228.547zM26.88 140.83l.461-.376a74.575 74.575 0 0 1-2.171-2.778l-.473.352c.706.949 1.44 1.89 2.183 2.801M22.64 135.138l.487-.333a84.478 84.478 0 0 1-1.912-2.955l-.503.31a75.997 75.997 0 0 0 1.928 2.978M12.074 112.728a75.7 75.7 0 0 0 1.076 3.39l.56-.19a79.65 79.65 0 0 1-1.07-3.365l-.566.165zM34.148 148.617a79.472 79.472 0 0 0 2.643 2.374l.387-.447a82.76 82.76 0 0 1-2.625-2.358l-.405.431zM18.92 129.098l.518-.289a77.378 77.378 0 0 1-1.646-3.12l-.533.266a83.743 83.743 0 0 0 1.662 3.143M15.744 122.737l.54-.24a88.79 88.79 0 0 1-1.362-3.255l-.55.213a90.231 90.231 0 0 0 1.372 3.282M113.552 166.66a80.682 80.682 0 0 0 3.363-1.147l-.202-.555a85.416 85.416 0 0 1-3.341 1.14l.18.562zM99.683 169.736a79.45 79.45 0 0 0 3.514-.54l-.102-.581a82.423 82.423 0 0 1-3.49.536l.078.585zM106.685 168.504a77.272 77.272 0 0 0 3.454-.847l-.154-.57a81.533 81.533 0 0 1-3.428.84l.128.577zM42.384 155.383l.345-.48a81.465 81.465 0 0 1-2.824-2.119l-.364.465a79.086 79.086 0 0 0 2.843 2.134M48.34 159.268l.3-.51a83.004 83.004 0 0 1-3-1.864l-.322.5c.99.64 2.006 1.274 3.022 1.874M57.865 164.076c.833.357 1.68.694 2.528 1.017l-.087-.664a71.504 71.504 0 0 1-2.208-.896l-.233.543zM54.619 162.615l.255-.536a77.5 77.5 0 0 1-3.154-1.59l-.277.521a83.918 83.918 0 0 0 3.176 1.605M31.612 146.127l.424-.413a82.17 82.17 0 0 1-2.408-2.576l-.439.394a83.289 83.289 0 0 0 2.423 2.595M27.078 39.026a81.64 81.64 0 0 0-2.194 2.798l.473.356a73.792 73.792 0 0 1 2.178-2.775l-.457-.379zM37.4 29.338l-.387-.45a82.827 82.827 0 0 0-2.647 2.366l.405.432c.855-.8 1.74-1.59 2.629-2.348M31.824 33.738a83.687 83.687 0 0 0-2.43 2.592l.439.393a87 87 0 0 1 2.415-2.572l-.424-.413zM42.105 24.887a76.057 76.057 0 0 0-2.34 1.755l.364.465a70.509 70.509 0 0 1 2.063-1.553l-.087-.667zM75.116 10.9c-1.05.184-2.104.397-3.146.626l.075.589a77.774 77.774 0 0 1 3.172-.634l-.101-.581zM92.685 170.352a82.223 82.223 0 0 0 3.465-.23l-.053-.588c-1.155.101-2.329.18-3.491.229l.079.589zM22.814 44.717a80.979 80.979 0 0 0-1.943 2.978l.503.311a88.739 88.739 0 0 1 1.927-2.959l-.487-.33zM19.064 50.76a78.499 78.499 0 0 0-1.673 3.142l.529.266a85.365 85.365 0 0 1 1.657-3.12l-.514-.288zM10.985 74.15c.232-1.151.495-2.31.78-3.45l-.574-.143a83.275 83.275 0 0 0-.787 3.477l.58.116zM16.397 57.357l-.54-.244a86.624 86.624 0 0 0-1.387 3.278l.547.221c.435-1.091.9-2.186 1.38-3.255M13.226 63.729a89.197 89.197 0 0 0-1.095 3.39l.57.169a74.725 74.725 0 0 1 1.084-3.364l-.56-.195zM165.674 112.876l.566.17c.342-1.137.657-2.292.945-3.436l-.573-.146c-.285 1.14-.6 2.287-.938 3.412M161.177 54.206l-.528.262a82.235 82.235 0 0 1 1.5 3.195l.54-.24a80.861 80.861 0 0 0-1.512-3.217M149.27 36.617l-.443.394a74.32 74.32 0 0 1 2.288 2.68l.457-.37a75.46 75.46 0 0 0-2.302-2.704M126.66 161.185a80.373 80.373 0 0 0 3.097-1.721l-.296-.51a74.686 74.686 0 0 1-3.079 1.71l.278.521zM155.81 45.016c-.66-.975-1.35-1.95-2.055-2.895l-.476.352a81.136 81.136 0 0 1 2.04 2.873l.491-.33z"/>
        <path d="M89.44 9.65c-1.177 0-2.374.022-3.555.074l.026.589a79.119 79.119 0 0 1 3.53-.071v-.593zM82.389 10.539l-.053-.589c-1.17.102-2.362.229-3.536.383l-.169.022.075.585.173-.018a79.63 79.63 0 0 1 3.51-.383M92.994 9.735l-.026.589c1.17.056 2.355.135 3.517.244l.056-.593a80.462 80.462 0 0 0-3.547-.24M117.31 14.717a79.424 79.424 0 0 0-3.363-1.174l-.184.563c1.114.36 2.235.754 3.337 1.162l.21-.55zM110.534 12.52a75.131 75.131 0 0 0-3.458-.87l-.13.574c1.147.262 2.302.555 3.43.866l.158-.57zM103.585 10.934a79.557 79.557 0 0 0-3.514-.555l-.078.582c1.162.16 2.332.345 3.487.554l.105-.58zM157.733 47.997l-.503.31a84.42 84.42 0 0 1 1.774 3.038l.518-.285a77.72 77.72 0 0 0-1.79-3.063M148.947 143.816a83.548 83.548 0 0 0 2.318-2.696l-.454-.375a81.897 81.897 0 0 1-2.306 2.677l.442.394zM153.463 138.326a76.216 76.216 0 0 0 2.073-2.891l-.487-.334a78.145 78.145 0 0 1-2.059 2.869l.473.356zM157.48 132.46a78.92 78.92 0 0 0 1.811-3.06l-.513-.293a82.868 82.868 0 0 1-1.797 3.042l.5.31zM132.781 157.605a80.73 80.73 0 0 0 2.936-1.99l-.34-.485a78.005 78.005 0 0 1-2.915 1.977l.32.498zM160.968 126.258a78.664 78.664 0 0 0 1.538-3.21l-.54-.244a72.961 72.961 0 0 1-1.526 3.188l.528.266zM138.565 153.495a78.95 78.95 0 0 0 2.753-2.247l-.383-.45a77.004 77.004 0 0 1-2.733 2.228l.363.469zM143.969 148.886a83.63 83.63 0 0 0 2.546-2.483l-.424-.412a78.087 78.087 0 0 1-2.523 2.46l.4.435zM168.067 77.934l.585-.09a82.245 82.245 0 0 0-.614-3.502l-.582.116c.225 1.14.431 2.31.612 3.476M165.143 116.434l-.559-.195a77.804 77.804 0 0 1-1.237 3.311l.547.222c.443-1.1.86-2.22 1.25-3.338M164.057 60.706l-.547.218a79.3 79.3 0 0 1 1.207 3.31l.563-.187a80.805 80.805 0 0 0-1.223-3.34M166.351 67.437l-.57.165c.33 1.125.638 2.272.915 3.409l.574-.139a82.694 82.694 0 0 0-.919-3.435M168.831 84.95l.589-.038a82.173 82.173 0 0 0-.308-3.544l-.588.067a74.89 74.89 0 0 1 .307 3.514M167.397 106.017l.578.117a78.54 78.54 0 0 0 .634-3.5l-.582-.09a84.213 84.213 0 0 1-.63 3.473M169.406 95.571l-.589-.04a79.026 79.026 0 0 1-.319 3.517l.59.063c.13-1.17.24-2.362.318-3.54M168.977 92.004l.593.015c.026-1.18.03-2.377.004-3.555l-.593.012a79.07 79.07 0 0 1-.004 3.528M56.224 169.449c.098.408.12.206 0 0M53.56 84.92V59.146s7.362-2.835 15.473-5.955c9.746-3.746 20.565-7.901 20.948-8.051.91.349 36.487 14.006 36.42 14.006 0 0 0 16.946-.072 25.774 0 17.437-5.111 41.182-36.348 49.867-31.31-8.685-36.42-32.006-36.42-49.867m40.24 71.434c34.94-1.97 62.663-30.923 62.663-66.357 0-36.705-29.76-66.465-66.465-66.465-36.708 0-66.468 29.76-66.468 66.465 0 23.84 12.55 44.742 31.398 56.472 10.181 6.333 22.197 9.997 35.07 9.997 1.275 0 2.547-.041 3.803-.112"/>
        <path d="M97.196 83.499c.462.244.942.368 1.444.368.491 0 .971-.124 1.436-.368a2.633 2.633 0 0 0 1.073-1.031c.251-.443.379-.9.379-1.369 0-.491-.132-.96-.394-1.403a2.717 2.717 0 0 0-1.076-1.023c-.45-.24-.927-.36-1.418-.36a3.1 3.1 0 0 0-1.436.36c-.465.24-.825.581-1.08 1.023a2.737 2.737 0 0 0-.386 1.403c0 .469.127.926.386 1.369.255.438.615.783 1.072 1.031"/>
        <path d="M91.743 112.673l.694.694a1.657 1.657 0 0 1 0 2.34 1.657 1.657 0 0 1-2.34 0l-.116-.116-4.114-4.11 4.114-4.11.116-.117a1.63 1.63 0 0 1 1.166-.487c.424 0 .848.161 1.174.484a1.661 1.661 0 0 1 0 2.343l-.874.874c10.85-1.091 19.347-10.279 19.347-21.409a1.11 1.11 0 0 1 2.216 0c0 12.29-9.398 22.433-21.383 23.614zM72.007 95.412l-.019-3.555 9.098-16.849h3.225v16.647h2.145v3.757H84.31v4.297H80.55v-4.297h-8.543zm17.974-31.718l2.94 2.944-2.94 2.94-1.286 1.287a1.65 1.65 0 0 1-1.17.483 1.65 1.65 0 0 1-1.17-.483 1.65 1.65 0 0 1 0-2.34l.873-.878c-10.848 1.091-19.35 10.275-19.35 21.412a1.108 1.108 0 0 1-2.216 0c0-12.292 9.398-22.432 21.383-23.617l-.69-.69a1.65 1.65 0 0 1 0-2.34 1.65 1.65 0 0 1 2.34 0l1.286 1.282zm5.422 11.832a6.974 6.974 0 0 1 3.237-.806c1.083 0 2.148.27 3.187.806a6.009 6.009 0 0 1 2.453 2.306c.592 1.005.888 2.047.888 3.131 0 1.084-.285 2.123-.855 3.105a5.719 5.719 0 0 1-1.36 1.613 7.387 7.387 0 0 1 2.737 2.7c.738 1.252 1.106 2.565 1.106 3.926 0 1.346-.36 2.632-1.073 3.87-.716 1.237-1.725 2.197-3.022 2.88-1.298.679-2.651 1.024-4.061 1.024-1.41 0-2.764-.345-4.062-1.024-1.297-.683-2.302-1.642-3.018-2.88-.717-1.238-1.077-2.524-1.077-3.87 0-1.361.364-2.674 1.092-3.926a7.36 7.36 0 0 1 2.737-2.7 5.782 5.782 0 0 1-1.342-1.613c-.585-.982-.874-2.021-.874-3.105s.289-2.126.874-3.131a5.87 5.87 0 0 1 2.433-2.306zm23.922-11.546c.07 0-27.623-11.145-29.344-11.813v-.026c-.008.004-.023.007-.038.015-.01-.008-.026-.011-.033-.015-.63.214-29.487 11.347-29.415 11.276v21.641c0 14.989 2.94 35.441 29.415 42.724a.472.472 0 0 1 .037-.011c.008.004.023.007.034.011v-.019c26.34-7.301 29.344-28.08 29.344-42.705.07-7.421.07-21.079 0-21.079z"/>
        <path d="M94.84 94.365a4.056 4.056 0 0 0 1.62 1.56 4.527 4.527 0 0 0 2.182.562c.758 0 1.485-.187 2.179-.562a4.056 4.056 0 0 0 1.62-1.56c.386-.664.581-1.358.581-2.074 0-.739-.202-1.44-.6-2.115a3.978 3.978 0 0 0-1.627-1.541 4.576 4.576 0 0 0-2.153-.537c-.754 0-1.477.177-2.175.537a3.889 3.889 0 0 0-1.627 1.54 4.191 4.191 0 0 0-.582 2.116c0 .716.196 1.41.582 2.074M80.532 82.677l-4.815 8.977h4.834z"/>
    </g>
</svg>
