<svg xmlns="http://www.w3.org/2000/svg" width="180" height="180" viewBox="0 0 180 180">
    <path fill="#C7C7CD" fill-rule="evenodd" d="M89.998 135l42.727-28.204h-13.248V70.713H60.519v36.083H47.27L89.998 135zM64.16 60.468c0 .574-.228 1.08-.682 1.515-.454.44-1.103.657-1.947.657-1.124 0-1.995-.428-2.602-1.28-.371-.528-.619-1.293-.739-2.298l-5.61.386c.165 2.127.874 3.882 2.123 5.258 1.248 1.38 3.495 2.07 6.738 2.07 1.85 0 3.38-.296 4.594-.885A6.52 6.52 0 0 0 68.87 63.3a7.202 7.202 0 0 0 1.016-3.735c0-1.148-.254-2.19-.76-3.117-.51-.93-1.32-1.706-2.434-2.332-1.114-.63-2.96-1.249-5.535-1.86-1.043-.24-1.703-.499-1.98-.776-.285-.27-.428-.57-.428-.908 0-.457.172-.847.521-1.17.345-.322.863-.48 1.549-.48.829 0 1.485.214 1.957.645.473.431.78 1.121.93 2.07l5.554-.36c-.244-2.182-1.005-3.776-2.284-4.777-1.278-.998-3.138-1.5-5.572-1.5-1.988 0-3.551.277-4.691.825-1.14.55-1.995 1.308-2.565 2.268a5.965 5.965 0 0 0-.852 3.068c0 1.65.556 3.004 1.666 4.065 1.102 1.065 2.947 1.916 5.53 2.557 1.58.383 2.585.792 3.02 1.223.43.431.648.919.648 1.462zm6.776 6.308h6.02l.93-3.476h6.69l.956 3.476h6.172l-7.17-21.056h-6.428l-7.17 21.056zm22.64 0h15.09V61.59h-9.2V45.72h-5.89v21.056zm17.756 0h16.08v-4.77h-10.174v-4.151h9.172V53.56h-9.172v-3.349h9.888V45.72h-15.794v21.056zm-21.334 89.692c-12.874 0-24.889-3.663-35.07-10C36.08 134.737 23.533 113.834 23.533 90c0-36.71 29.756-66.465 66.465-66.465S156.466 53.29 156.466 90c0 35.433-27.727 64.383-62.662 66.356-1.26.071-2.528.112-3.806.112zm.828-54.536h4.992V99.33h-4.992v-2.247h5.843v-2.767h-9.836v12.874h3.993v-5.258zm11.997 0h4.991V99.33h-4.991v-2.247h5.842v-2.767H98.83v12.874h3.994v-5.258zM81.249 51.176l-2.085 7.571h4.192l-2.107-7.571zm-.555 49.429c0-1.215-.248-2.097-.735-2.66-.491-.558-1.151-.835-1.991-.835-.799 0-1.444.28-1.931.85-.488.567-.728 1.508-.728 2.82 0 1.298.24 2.232.724 2.802.483.566 1.14.851 1.972.851.855 0 1.515-.277 1.984-.836.469-.555.705-1.552.705-2.992zm2.239-4.785c1.158 1.15 1.74 2.763 1.74 4.837 0 1.504-.255 2.738-.761 3.701a5.42 5.42 0 0 1-2.194 2.25c-.96.537-2.153.803-3.582.803-1.45 0-2.654-.229-3.607-.694-.949-.461-1.721-1.196-2.314-2.194-.589-1.005-.889-2.257-.889-3.76 0-2.1.59-3.74 1.76-4.91s2.8-1.758 4.893-1.758c2.141 0 3.795.577 4.954 1.725zm-26.708 73.63c.098.406.117.203 0 0zM168.98 92.007l.589.011c.026-1.177.03-2.377.004-3.555l-.593.015c.026 1.17.023 2.355 0 3.529zm.428 3.562l-.589-.037a84.297 84.297 0 0 1-.319 3.514l.585.067c.131-1.174.24-2.362.323-3.544zm-2.01 10.448l.577.12a79.53 79.53 0 0 0 .634-3.499l-.581-.094a84.213 84.213 0 0 1-.63 3.473zm1.432-21.068l.589-.033a70.953 70.953 0 0 0-.308-3.544l-.584.064a80.27 80.27 0 0 1 .303 3.513zm-2.479-17.512l-.57.165c.33 1.129.638 2.272.915 3.409l.574-.14a85.961 85.961 0 0 0-.919-3.434zm-2.29-6.731l-.552.217a85.265 85.265 0 0 1 1.211 3.315l.559-.191a80.748 80.748 0 0 0-1.219-3.341zm1.083 55.728l-.559-.19a79.6 79.6 0 0 1-1.237 3.307l.551.22c.435-1.098.855-2.22 1.245-3.337zm2.921-38.5l.585-.09a82.058 82.058 0 0 0-.611-3.5l-.581.113c.225 1.144.431 2.314.607 3.476zm-24.094 70.953a83.492 83.492 0 0 0 2.543-2.479l-.424-.416a78.087 78.087 0 0 1-2.524 2.46l.405.435zm-5.403 4.609a81.767 81.767 0 0 0 2.752-2.247l-.386-.45a77.114 77.114 0 0 1-2.734 2.232l.368.465zm22.402-27.237a78.592 78.592 0 0 0 1.534-3.21l-.54-.243a77.485 77.485 0 0 1-1.523 3.187l.53.266zm-28.189 31.347a80.73 80.73 0 0 0 2.937-1.992l-.341-.48a88.507 88.507 0 0 1-2.918 1.977l.322.495zm24.702-25.148a86.256 86.256 0 0 0 1.811-3.06l-.518-.289a79.69 79.69 0 0 1-1.796 3.038l.503.311zm-4.02 5.869a82.604 82.604 0 0 0 2.073-2.888l-.487-.337a79.429 79.429 0 0 1-2.059 2.869l.473.356zm-4.515 5.49a83.548 83.548 0 0 0 2.317-2.696l-.457-.375a81.66 81.66 0 0 1-2.299 2.677l.439.394zm8.786-95.82l-.506.311a81.355 81.355 0 0 1 1.777 3.038l.518-.285a82.679 82.679 0 0 0-1.789-3.064zm-54.146-37.061a81.392 81.392 0 0 0-3.514-.56l-.079.586c1.159.157 2.333.345 3.484.555l.109-.581zm6.945 1.582a87.705 87.705 0 0 0-3.454-.87l-.131.578c1.144.262 2.299.555 3.427.866l.158-.574zm6.776 2.198a83.016 83.016 0 0 0-3.364-1.174l-.183.566c1.113.356 2.238.75 3.34 1.163l.207-.555zm-24.315-4.98l-.026.588c1.17.057 2.351.14 3.517.24l.056-.585a75.116 75.116 0 0 0-3.547-.243zm-10.605.806l-.052-.593c-1.17.105-2.36.233-3.537.387l-.168.022.075.585.172-.022a79.603 79.603 0 0 1 3.51-.38zm7.05-.893c-1.177 0-2.374.023-3.555.075l.026.59a79.119 79.119 0 0 1 3.529-.072v-.593zm66.371 35.367a82.386 82.386 0 0 0-2.055-2.895l-.476.352a79.75 79.75 0 0 1 2.04 2.873l.491-.33zm-29.152 116.17a75.834 75.834 0 0 0 3.101-1.724l-.3-.506a79.156 79.156 0 0 1-3.075 1.706l.274.525zm22.612-124.57l-.442.393a77.84 77.84 0 0 1 2.287 2.685l.458-.375a82.673 82.673 0 0 0-2.303-2.703zm11.906 17.59l-.528.263a82.235 82.235 0 0 1 1.5 3.195l.543-.24a80.94 80.94 0 0 0-1.514-3.217zm4.497 58.673l.57.17c.337-1.137.656-2.292.941-3.44l-.57-.142a85.273 85.273 0 0 1-.941 3.412zM13.228 63.731a77.38 77.38 0 0 0-1.095 3.386l.566.173a81.856 81.856 0 0 1 1.088-3.368l-.56-.191zm3.172-6.375l-.543-.244a89.301 89.301 0 0 0-1.388 3.278l.548.22a77.71 77.71 0 0 1 1.383-3.254zm-5.415 16.792c.233-1.15.499-2.31.78-3.446l-.574-.146a84.654 84.654 0 0 0-.787 3.476l.581.116zm8.078-23.388a81.155 81.155 0 0 0-1.673 3.142l.529.266a80.012 80.012 0 0 1 1.661-3.12l-.517-.288zm3.75-6.045c-.664.975-1.32 1.98-1.943 2.98l.503.312a85.024 85.024 0 0 1 1.927-2.959l-.487-.333zm69.87 125.636a82.818 82.818 0 0 0 3.468-.229l-.052-.589c-1.155.102-2.333.18-3.491.23l.075.588zM75.114 10.9a83.244 83.244 0 0 0-3.146.622l.075.59a84.86 84.86 0 0 1 3.176-.63l-.105-.582zM42.106 24.885a90.737 90.737 0 0 0-2.343 1.755l.367.468a78.032 78.032 0 0 1 2.063-1.556l-.087-.667zm-10.282 8.853a83.687 83.687 0 0 0-2.43 2.592l.439.393a82.285 82.285 0 0 1 2.415-2.572l-.424-.413zm5.576-4.402l-.382-.446a79.062 79.062 0 0 0-2.651 2.366l.405.431c.855-.799 1.74-1.59 2.628-2.351zm-10.32 9.69a81.755 81.755 0 0 0-2.197 2.797l.476.357a84.195 84.195 0 0 1 2.175-2.78l-.454-.374zm4.534 107.1l.42-.413a82.17 82.17 0 0 1-2.407-2.576l-.44.394a79.115 79.115 0 0 0 2.427 2.595zm23.003 16.489l.255-.533a85.613 85.613 0 0 1-3.154-1.594l-.278.522a81.245 81.245 0 0 0 3.177 1.605zm3.247 1.462c.833.356 1.68.69 2.528 1.016l-.083-.663a77.794 77.794 0 0 1-2.212-.897l-.233.544zm-9.521-4.811l.3-.51a75.161 75.161 0 0 1-3-1.86l-.327.495a81.13 81.13 0 0 0 3.027 1.875zm-5.959-3.881l.345-.484a81.465 81.465 0 0 1-2.824-2.119l-.367.465c.93.731 1.886 1.448 2.846 2.138zm64.301 13.117a78.558 78.558 0 0 0 3.454-.847l-.154-.567c-1.129.3-2.284.582-3.427.837l.127.577zm-7.001 1.234a85.418 85.418 0 0 0 3.514-.54l-.101-.581a79.087 79.087 0 0 1-3.488.532l.075.589zm13.868-3.075a80.682 80.682 0 0 0 3.363-1.148l-.202-.555a79.557 79.557 0 0 1-3.341 1.137l.18.566zm-97.808-43.928l.54-.236a77.495 77.495 0 0 1-1.361-3.259l-.552.218a78.445 78.445 0 0 0 1.373 3.277zm3.176 6.364l.518-.285a77.522 77.522 0 0 1-1.646-3.124l-.53.263a76.148 76.148 0 0 0 1.658 3.146zm15.229 19.519a79.472 79.472 0 0 0 2.644 2.374l.386-.447a78.823 78.823 0 0 1-2.625-2.358l-.405.43zm-22.076-35.888a80.887 80.887 0 0 0 1.076 3.39l.559-.19a74.496 74.496 0 0 1-1.065-3.365l-.57.165zm10.567 22.41l.488-.333a79.369 79.369 0 0 1-1.913-2.955l-.502.31a78.91 78.91 0 0 0 1.927 2.978zm4.241 5.69l.458-.372a77.705 77.705 0 0 1-2.167-2.779l-.477.353a76.48 76.48 0 0 0 2.186 2.797zm93.346 23.388a83.942 83.942 0 0 0 3.25-1.444l-.254-.536a80.232 80.232 0 0 1-3.225 1.436l.228.544zm44.355-77.906c-.012-.195-.027-.387-.034-.582h-.634c1.11 19.144-5.149 38.7-19.005 54.004-22.706 25.069-58.792 30.964-87.72 16.688l-.435.48c11.321 5.647 23.955 8.325 36.938 7.683 19.92-.986 38.265-9.67 51.656-24.457 13.387-14.783 20.216-33.896 19.233-53.816zm-9.63-31.92h.72a69.282 69.282 0 0 0-2.39-4.077l-.43.477a75.542 75.542 0 0 1 2.1 3.6zM38.447 143.2c-16.002-15.49-23.554-36.644-22.373-57.472h-.634a76.224 76.224 0 0 0-.026 7.965c.945 19.088 8.963 36.724 22.635 49.947l.398-.44zM25.032 54.39a73.83 73.83 0 0 1 10.053-14.12c26.862-29.658 72.447-32.49 102.758-6.824l.398-.439c-14.505-12.3-32.85-18.536-51.938-17.591-19.92.99-38.265 9.671-51.656 24.457A75.252 75.252 0 0 0 24.33 54.39h.702zm154.215 23.913l-.604.563c3.431 27.596-5.993 56.404-27.907 76.706-36.154 33.491-92.82 31.324-126.312-4.834a89.134 89.134 0 0 1-15.364-22.8l-.502.465a90.207 90.207 0 0 0 15.412 22.755c16.34 17.64 38.566 27.855 62.588 28.774 24.019.919 46.961-7.571 64.597-23.91 17.637-16.335 27.856-38.561 28.774-62.584a91.08 91.08 0 0 0-.682-15.135zm-23.681-49.042a89.389 89.389 0 0 1 11.583 15.607l.48-.442a90.692 90.692 0 0 0-11.61-15.589 90.365 90.365 0 0 0-21.514-17.104l-.502.465a89.132 89.132 0 0 1 21.563 17.063zM.665 91.072l-.652.604a93.21 93.21 0 0 1 .052-5.115C.984 62.538 11.2 40.312 28.835 23.977S69.414-.852 93.436.067c1.71.068 3.41.184 5.1.341l-.648.604C73.59-1.133 48.515 6.588 29.255 24.431 9.995 42.27.384 66.686.665 91.072z"/>
</svg>
