<svg xmlns="http://www.w3.org/2000/svg" width="180" height="180" viewBox="0 0 180 180">
    <g fill="#C7C7CD" fill-rule="evenodd">
        <path d="M29.256 24.43C48.516 6.588 73.592-1.13 97.888 1.011l.65-.6a91.78 91.78 0 0 0-5.105-.345c-24.022-.918-46.96 7.572-64.597 23.91C11.2 40.311.981 62.541.062 86.56a93.151 93.151 0 0 0-.045 5.115l.645-.604C.385 66.685 9.996 42.27 29.256 24.431M155.568 29.26a89.274 89.274 0 0 1 11.583 15.612l.48-.447a90.716 90.716 0 0 0-11.61-15.584 90.232 90.232 0 0 0-21.517-17.108l-.499.469a89.024 89.024 0 0 1 21.563 17.059M179.25 78.303l-.607.563c3.431 27.596-5.993 56.404-27.908 76.702-36.153 33.495-92.816 31.328-126.31-4.83a89.073 89.073 0 0 1-15.36-22.803l-.507.468a90.405 90.405 0 0 0 15.412 22.755c16.34 17.637 38.565 27.855 62.588 28.774 24.022.919 46.965-7.571 64.597-23.906 17.637-16.339 27.855-38.565 28.774-62.588a91.062 91.062 0 0 0-.679-15.135"/>
        <path d="M25.032 54.39a73.996 73.996 0 0 1 10.053-14.119c26.862-29.659 72.447-32.49 102.758-6.821l.397-.443c-14.505-12.3-32.85-18.536-51.937-17.59-19.92.99-38.265 9.674-51.656 24.457A75.186 75.186 0 0 0 24.334 54.39h.698zM38.448 143.2C22.447 127.709 14.89 106.555 16.072 85.73h-.63a75.139 75.139 0 0 0-.027 7.961c.945 19.088 8.963 36.728 22.636 49.947l.397-.44zM154.95 54.39h.72a72.695 72.695 0 0 0-2.385-4.076l-.435.48a69.103 69.103 0 0 1 2.1 3.596M164.58 86.307c-.008-.191-.023-.386-.034-.578h-.63c1.107 19.144-5.148 38.7-19.008 54-22.703 25.073-58.79 30.968-87.72 16.692l-.432.476c11.318 5.651 23.951 8.329 36.934 7.688 19.92-.99 38.265-9.675 51.656-24.458 13.388-14.783 20.22-33.9 19.234-53.82M120.228 164.215a78.432 78.432 0 0 0 3.248-1.444l-.251-.532a77.262 77.262 0 0 1-3.225 1.428l.228.548zM26.881 140.829l.458-.375a82.128 82.128 0 0 1-2.168-2.775l-.476.352a83.497 83.497 0 0 0 2.186 2.798M22.638 135.138l.488-.33a88.197 88.197 0 0 1-1.909-2.96l-.506.312a85.78 85.78 0 0 0 1.927 2.978M12.073 112.73a82.686 82.686 0 0 0 1.077 3.39l.559-.192a81.423 81.423 0 0 1-1.07-3.364l-.566.165zM34.149 148.616a79.472 79.472 0 0 0 2.643 2.374l.387-.447a78.402 78.402 0 0 1-2.625-2.358l-.405.43zM18.92 129.097l.517-.289a74.933 74.933 0 0 1-1.646-3.12l-.529.267a78.485 78.485 0 0 0 1.657 3.142M15.745 122.736l.54-.236a85.29 85.29 0 0 1-1.361-3.259l-.552.214a76.535 76.535 0 0 0 1.373 3.281M113.55 166.66a80.682 80.682 0 0 0 3.364-1.148l-.202-.555a81.336 81.336 0 0 1-3.338 1.14l.176.562zM99.684 169.736a79.45 79.45 0 0 0 3.514-.54l-.101-.582a84.326 84.326 0 0 1-3.492.536l.079.585zM106.686 168.503a78.558 78.558 0 0 0 3.453-.847l-.153-.57a81.533 81.533 0 0 1-3.428.84l.128.577zM42.383 155.382l.345-.48a81.465 81.465 0 0 1-2.824-2.12l-.364.466a82.577 82.577 0 0 0 2.843 2.134M48.34 159.267l.3-.51a79.76 79.76 0 0 1-3-1.86l-.322.495c.99.642 2.007 1.275 3.023 1.875M57.864 164.077c.833.353 1.68.69 2.528 1.017l-.086-.668a87.587 87.587 0 0 1-2.21-.892l-.232.543zM54.62 162.614l.255-.532a80.046 80.046 0 0 1-3.154-1.594l-.281.521a86.997 86.997 0 0 0 3.18 1.605M31.613 146.128l.423-.413a78.325 78.325 0 0 1-2.407-2.58l-.439.398a78.997 78.997 0 0 0 2.422 2.595M27.079 39.027a81.64 81.64 0 0 0-2.194 2.798l.473.352a80.413 80.413 0 0 1 2.178-2.775l-.457-.375zM37.399 29.337l-.383-.45a75.227 75.227 0 0 0-2.651 2.37l.405.432c.859-.8 1.74-1.59 2.629-2.352M31.825 33.738a83.405 83.405 0 0 0-2.43 2.59l.439.398a87.334 87.334 0 0 1 2.41-2.576l-.42-.412zM42.105 24.886a82.67 82.67 0 0 0-2.34 1.755l.363.465a84.608 84.608 0 0 1 2.063-1.552l-.086-.668zM75.115 10.9a76.466 76.466 0 0 0-3.146.627l.075.585a84.86 84.86 0 0 1 3.176-.63l-.105-.582zM92.685 170.35a82.223 82.223 0 0 0 3.465-.228l-.052-.589c-1.155.101-2.329.18-3.491.229l.078.589zM22.814 44.717a80.979 80.979 0 0 0-1.942 2.977l.502.315a81.608 81.608 0 0 1 1.928-2.959l-.488-.333zM19.062 50.76a81.003 81.003 0 0 0-1.672 3.14l.529.27c.528-1.05 1.087-2.1 1.66-3.12l-.517-.29zM10.986 74.15c.232-1.15.495-2.313.78-3.45l-.574-.142a83.103 83.103 0 0 0-.788 3.473l.582.12zM16.398 57.356l-.54-.24a78.691 78.691 0 0 0-1.387 3.278l.547.217c.435-1.091.9-2.186 1.38-3.255M13.227 63.728a77.534 77.534 0 0 0-1.095 3.39l.57.169a76.299 76.299 0 0 1 1.084-3.364l-.559-.195zM165.673 112.876l.566.168c.342-1.132.66-2.287.945-3.434l-.573-.143a77.732 77.732 0 0 1-.938 3.409M161.176 54.207l-.529.262a79.72 79.72 0 0 1 1.5 3.195l.544-.24a80.94 80.94 0 0 0-1.515-3.217M149.27 36.616l-.442.394a87.177 87.177 0 0 1 2.288 2.684l.457-.375a83.367 83.367 0 0 0-2.302-2.703M126.659 161.186a83.437 83.437 0 0 0 3.101-1.721l-.3-.514a77.084 77.084 0 0 1-3.075 1.71l.274.525zM155.81 45.015c-.66-.975-1.35-1.95-2.056-2.895l-.472.352c.697.942 1.38 1.91 2.04 2.873l.487-.33z"/>
        <path d="M89.439 9.65a80.415 80.415 0 0 0-3.555.071l.026.593a79.119 79.119 0 0 1 3.529-.072V9.65zM82.388 10.54l-.053-.589c-1.17.101-2.359.229-3.536.383l-.169.022.079.585.168-.023a86.442 86.442 0 0 1 3.51-.378M92.993 9.734l-.026.593c1.17.052 2.355.131 3.521.24l.053-.593a86.65 86.65 0 0 0-3.548-.24M117.31 14.716a81.153 81.153 0 0 0-3.36-1.173l-.184.562c1.113.36 2.235.754 3.337 1.166l.206-.555zM110.533 12.52a81.556 81.556 0 0 0-3.454-.87l-.135.577c1.151.262 2.302.551 3.431.862l.158-.57zM103.586 10.934a79.557 79.557 0 0 0-3.514-.555l-.079.585c1.16.157 2.333.345 3.488.55l.105-.58zM157.734 47.998l-.507.311a81.355 81.355 0 0 1 1.778 3.038l.517-.29a85.72 85.72 0 0 0-1.788-3.06M148.948 143.815a87.664 87.664 0 0 0 2.318-2.692l-.457-.38a78.026 78.026 0 0 1-2.303 2.678l.442.394zM153.464 138.326a84.018 84.018 0 0 0 2.074-2.888l-.488-.334a86.517 86.517 0 0 1-2.059 2.865l.473.357zM157.48 132.459a76.195 76.195 0 0 0 1.812-3.06l-.514-.293a82.963 82.963 0 0 1-1.8 3.041l.503.312zM132.782 157.605a80.73 80.73 0 0 0 2.936-1.992l-.341-.483a79.74 79.74 0 0 1-2.918 1.98l.323.495zM160.97 126.259a83.952 83.952 0 0 0 1.537-3.21l-.54-.244a85.523 85.523 0 0 1-1.527 3.188l.53.266zM138.566 153.494a78.166 78.166 0 0 0 2.753-2.246l-.386-.45a81.381 81.381 0 0 1-2.73 2.23l.363.466zM143.97 148.885a83.492 83.492 0 0 0 2.542-2.479l-.424-.416a70.99 70.99 0 0 1-2.523 2.46l.405.435zM168.066 77.934l.585-.09a83.299 83.299 0 0 0-.615-3.503l-.58.116c.228 1.144.434 2.31.61 3.477M165.144 116.433l-.559-.195a79.918 79.918 0 0 1-1.237 3.315l.547.218c.439-1.095.859-2.22 1.249-3.338M164.058 60.707l-.55.214a76.253 76.253 0 0 1 1.21 3.315l.563-.191a84.243 84.243 0 0 0-1.223-3.338M166.35 67.436l-.57.165c.33 1.125.638 2.273.916 3.409l.573-.139a84.296 84.296 0 0 0-.918-3.435M168.83 84.95l.592-.037a75.735 75.735 0 0 0-.31-3.544l-.586.067a80.27 80.27 0 0 1 .304 3.514M167.398 106.017l.578.116a78.54 78.54 0 0 0 .633-3.499l-.585-.09a78.318 78.318 0 0 1-.626 3.473M169.407 95.57l-.59-.037a85.473 85.473 0 0 1-.318 3.513l.589.064c.131-1.17.24-2.362.319-3.54M168.978 92.005l.593.011a86.24 86.24 0 0 0 .004-3.55l-.593.01c.023 1.17.023 2.36-.004 3.53M56.226 169.45c.097.409.116.206 0 0M121.525 104.394a2.803 2.803 0 1 0-.004 5.607 2.803 2.803 0 0 0 .004-5.607M83.635 104.394a2.8 2.8 0 0 0-2.802 2.805 2.802 2.802 0 0 0 2.802 2.802 2.803 2.803 0 1 0 0-5.606"/>
        <path d="M89.19 102.342a6.691 6.691 0 0 0-5.554-2.955 6.691 6.691 0 0 0-5.553 2.955 3.741 3.741 0 0 1-3.102 1.623H64.016a2.043 2.043 0 0 1-2.04-2.043 2.04 2.04 0 0 1 2.04-2.044h10.781a2.14 2.14 0 0 0 2.142-2.141 2.141 2.141 0 0 0-2.141-2.145H57.334a2.043 2.043 0 0 1-2.044-2.04c0-1.13.919-2.044 2.044-2.044H79.87a2.143 2.143 0 0 0 0-4.286H64.016a2.037 2.037 0 0 1-2.04-2.04 2.04 2.04 0 0 1 2.04-2.044h18.338a2.141 2.141 0 0 0 2.145-2.141c0-1.185-.96-2.145-2.145-2.145H72.21a2.04 2.04 0 0 1-2.044-2.04c0-1.13.915-2.044 2.044-2.044h14.336a2.04 2.04 0 0 0 2.04-2.04v-.203a2.04 2.04 0 0 0-2.04-2.043H79.05a2.043 2.043 0 0 1 0-4.084h23.842a4.958 4.958 0 0 1 4.958 4.957v27.65a4.961 4.961 0 0 1-4.957 4.96H92.29c-1.237 0-2.407-.6-3.101-1.623zm-.608 11.26h-26.88a.8.8 0 1 1 0-1.601H80.76a5.589 5.589 0 0 1-2.73-4.803 5.607 5.607 0 0 1 11.213 0 5.592 5.592 0 0 1-2.734 4.804h2.073a.801.801 0 1 1 0 1.6zm-31.188 0h-6.428a.8.8 0 1 1 0-1.6h6.428a.8.8 0 0 1 0 1.6zm-8.355-28.424c0-1.129.915-2.044 2.044-2.044h5.415c1.128 0 2.043.915 2.043 2.044a2.04 2.04 0 0 1-2.043 2.04h-5.415a2.04 2.04 0 0 1-2.044-2.04zm-4.043-8.486a2.04 2.04 0 0 1 2.044-2.04h17.936a2.04 2.04 0 0 1 2.044 2.04 2.044 2.044 0 0 1-2.044 2.043H47.04a2.044 2.044 0 0 1-2.044-2.043zm11.738-8.254c0-1.125.915-2.04 2.044-2.04H71.08a2.043 2.043 0 1 1 0 4.084H58.778a2.044 2.044 0 0 1-2.044-2.044zm53.148 10.774a2.52 2.52 0 0 1 2.52-2.52h12.132c.877 0 1.687.457 2.148 1.203l7.943 12.96c.244.394.371.852.371 1.317v9.273a2.517 2.517 0 0 1-2.516 2.52h-3.817c-.443 0-.856-.247-1.04-.648a6.698 6.698 0 0 0-12.199 0 1.137 1.137 0 0 1-1.038.648h-1.983a2.52 2.52 0 0 1-2.52-2.52V79.212zm24.315 34.39h-41.16a.803.803 0 0 1-.802-.798c0-.442.36-.802.802-.802h25.613a5.589 5.589 0 0 1-2.73-4.804 5.605 5.605 0 1 1 11.209 0 5.589 5.589 0 0 1-2.73 4.804h9.798a.8.8 0 0 1 0 1.6zm-40.395 42.755c34.936-1.973 62.663-30.927 62.663-66.357 0-36.708-29.76-66.468-66.469-66.468-36.705 0-66.465 29.76-66.465 66.468 0 23.835 12.548 44.738 31.399 56.468 10.181 6.337 22.196 9.997 35.066 9.997 1.279 0 2.547-.037 3.806-.108z"/>
        <path d="M117.925 89.553h11.164c1.12 0 1.81-1.23 1.222-2.186l-5.04-8.212a1.437 1.437 0 0 0-1.222-.687h-6.124c-.791 0-1.433.645-1.433 1.437v8.216c0 .791.641 1.432 1.433 1.432"/>
    </g>
</svg>
