<svg xmlns="http://www.w3.org/2000/svg" version="1.1" xmlns:xlink="http://www.w3.org/1999/xlink" xmlns:svgjs="http://svgjs.dev/svgjs" width="1000" height="1000" viewBox="0 0 1000 1000"><rect width="1000" height="1000" fill="#0c1d36"></rect><g transform="matrix(0.7,0,0,0.7,149.57575757575756,445.1205152764289)"><svg viewBox="0 0 396 62" data-background-color="#0c1d36" preserveAspectRatio="xMidYMid meet" height="156" width="1000" xmlns="http://www.w3.org/2000/svg" xmlns:xlink="http://www.w3.org/1999/xlink"><defs></defs><g id="tight-bounds" transform="matrix(1,0,0,1,0.2400000000000091,0.15868180276015664)"><svg viewBox="0 0 395.52 61.682636394479715" height="61.682636394479715" width="395.52"><g><svg viewBox="0 0 483.8718652739241 75.46139848101268" height="61.682636394479715" width="395.52"><g transform="matrix(1,0,0,1,88.35186527392406,10.429180253164564)"><svg viewBox="0 0 395.52 54.60303797468355" height="54.60303797468355" width="395.52"><g><svg viewBox="0 0 395.52 54.60303797468355" height="54.60303797468355" width="395.52"><g><svg viewBox="0 0 395.52 54.60303797468355" height="54.60303797468355" width="395.52"><g transform="matrix(1,0,0,1,0,0)"><svg width="395.52" viewBox="3.35 -34.3 252.84 34.9" height="54.60303797468355" data-palette-color="#000000"><g class="undefined-text-0" data-fill-palette-color="primary" id="text-0"><path d="M3.35 0L3.35-34.3 8.35-34.3 8.35-4.65 22.55-4.65 22.55 0 3.35 0ZM23.45 0L34.4-34.3 40.65-34.3 51.6 0 46.25 0 44-7.35 30.7-7.35 28.45 0 23.45 0ZM32.05-11.9L42.6-11.9 38.3-25.95Q37.9-27.25 37.45-30L37.45-30 37.25-30Q36.8-27.15 36.4-25.95L36.4-25.95 32.05-11.9ZM54.5 0L54.5-34.3 61.95-34.3 67.4-12.95Q67.95-10.6 68.65-5.2L68.65-5.2 68.84-5.2Q69.4-10.75 69.95-12.95L69.95-12.95 75.45-34.3 82.75-34.3 82.75 0 77.84 0 77.84-23.95Q77.84-25.2 78.2-29.3L78.2-29.3 78-29.3 77.65-27.8Q77.09-25 76.8-23.95L76.8-23.95 70.59 0 66.15 0 59.95-24Q59.45-26 58.84-29.3L58.84-29.3 58.65-29.3Q58.95-25 58.95-23.95L58.95-23.95 58.95 0 54.5 0ZM88.84 0L88.84-34.3 102.39-34.3Q104.99-34.3 107.04-33.25 109.09-32.2 110.27-30.28 111.44-28.35 111.44-25.85L111.44-25.85Q111.44-23 109.97-20.9 108.49-18.8 106.19-18L106.19-18 106.19-17.8Q108.84-17 110.54-14.68 112.24-12.35 112.24-9.15L112.24-9.15Q112.24-6.35 110.92-4.28 109.59-2.2 107.34-1.1 105.09 0 102.39 0L102.39 0 88.84 0ZM93.89-19.8L100.99-19.8Q103.34-19.8 104.77-21.28 106.19-22.75 106.19-24.85L106.19-24.85Q106.19-27.25 104.89-28.5 103.59-29.75 101.29-29.75L101.29-29.75 93.89-29.75 93.89-19.8ZM93.89-4.55L101.69-4.55Q104.04-4.55 105.52-5.93 106.99-7.3 106.99-9.8L106.99-9.8Q106.99-12.1 105.47-13.7 103.94-15.3 101.39-15.3L101.39-15.3 93.89-15.3 93.89-4.55ZM117.09 0L117.09-34.3 127.89-34.3Q134.19-34.3 137.66-30.05 141.14-25.8 141.14-17.65L141.14-17.65Q141.14-9 137.66-4.5 134.19 0 127.89 0L127.89 0 117.09 0ZM122.09-4.55L127.44-4.55Q131.44-4.55 133.66-7.55 135.89-10.55 135.89-16.4L135.89-16.4 135.89-18.9Q135.89-24.25 133.66-27 131.44-29.75 127.44-29.75L127.44-29.75 122.09-29.75 122.09-4.55ZM143.29 0L154.24-34.3 160.49-34.3 171.44 0 166.09 0 163.84-7.35 150.54-7.35 148.29 0 143.29 0ZM151.89-11.9L162.44-11.9 158.14-25.95Q157.74-27.25 157.29-30L157.29-30 157.09-30Q156.64-27.15 156.24-25.95L156.24-25.95 151.89-11.9Z" fill="#000000" data-fill-palette-color="primary"></path><path d="M174.59 0L174.59-34.3 188.14-34.3Q190.74-34.3 192.79-33.25 194.84-32.2 196.02-30.28 197.19-28.35 197.19-25.85L197.19-25.85Q197.19-23 195.72-20.9 194.24-18.8 191.94-18L191.94-18 191.94-17.8Q194.59-17 196.29-14.68 197.99-12.35 197.99-9.15L197.99-9.15Q197.99-6.35 196.67-4.28 195.34-2.2 193.09-1.1 190.84 0 188.14 0L188.14 0 174.59 0ZM179.64-19.8L186.74-19.8Q189.09-19.8 190.51-21.28 191.94-22.75 191.94-24.85L191.94-24.85Q191.94-27.25 190.64-28.5 189.34-29.75 187.04-29.75L187.04-29.75 179.64-29.75 179.64-19.8ZM179.64-4.55L187.44-4.55Q189.79-4.55 191.27-5.93 192.74-7.3 192.74-9.8L192.74-9.8Q192.74-12.1 191.22-13.7 189.69-15.3 187.14-15.3L187.14-15.3 179.64-15.3 179.64-4.55ZM214.29 0.6Q208.84 0.6 205.84-2.38 202.84-5.35 202.84-11L202.84-11 202.84-34.3 207.89-34.3 207.89-10.9Q207.89-7.5 209.56-5.7 211.24-3.9 214.29-3.9L214.29-3.9Q217.34-3.9 219.04-5.73 220.74-7.55 220.74-10.9L220.74-10.9 220.74-34.3 225.74-34.3 225.74-11Q225.74-5.35 222.74-2.38 219.74 0.6 214.29 0.6L214.29 0.6ZM240.28 0L240.28-13.8 229.34-34.3 234.79-34.3 242.99-18.65 243.19-18.65 251.24-34.3 256.19-34.3 245.28-13.8 245.28 0 240.28 0Z" fill="#f9cc0b" data-fill-palette-color="secondary"></path></g></svg></g></svg></g></svg></g></svg></g><g><svg viewBox="0 0 75.46139848101267 75.46139848101268" height="75.46139848101268" width="75.46139848101267"><g><svg xmlns="http://www.w3.org/2000/svg" xmlns:xlink="http://www.w3.org/1999/xlink" version="1.1" x="0" y="0" viewBox="5.699999999999999 6 87.89999999999999 87.9" style="enable-background:new 0 0 100 100;" xml:space="preserve" height="75.46139848101268" width="75.46139848101267" class="icon-icon-0" data-fill-palette-color="accent" id="icon-0"><g fill="#ffdc00" data-fill-palette-color="accent"><g fill="#ffdc00" data-fill-palette-color="accent"><path d="M51.7 55c-0.7-2-1.3-4-2-6.4h-0.3c-0.4 2-1.2 4.2-1.9 6.2l-6 17.1h-5.6l10.7-27.3c0.2-0.7 0.4-1.1 0.4-1.4 0-0.4-0.1-0.9-0.4-1.6-1.9-5.2-4.1-9.3-7.7-9.3-0.3 0-0.7 0-1 0.1l0.4-4.2c0.5-0.2 1.3-0.2 2.1-0.2 5.8 0 8.5 5.6 11.7 14l11.3 30h-5.7L51.7 55z" fill="#ffdc00" data-fill-palette-color="accent"></path></g></g><g fill="#ffdc00" data-fill-palette-color="accent"><path d="M81.1 93.9H18.2c-6.9 0-12.5-5.6-12.5-12.5V18.5C5.7 11.6 11.3 6 18.2 6h62.9c6.9 0 12.5 5.6 12.5 12.5v62.9C93.6 88.3 88 93.9 81.1 93.9zM18.2 7C11.9 7 6.7 12.2 6.7 18.5v62.9c0 6.3 5.2 11.5 11.5 11.5h62.9c6.3 0 11.5-5.2 11.5-11.5V18.5C92.6 12.2 87.5 7 81.1 7H18.2z" fill="#ffdc00" data-fill-palette-color="accent"></path></g></svg><g></g></g></svg></g></svg></g></svg><rect width="395.52" height="61.682636394479715" fill="none" stroke="none" visibility="hidden"></rect></g></svg></g></svg>